<svg width="40" height="40" viewBox="0 0 40 40" fill="none" xmlns="http://www.w3.org/2000/svg">
<path d="M0 9.6V3C0 2.2 0.3 1.5 0.9 0.9C1.5 0.3 2.2 0 3 0H9.6V3H3V9.6H0ZM9.6 40H3C2.2 40 1.5 39.7 0.9 39.1C0.3 38.5 0 37.8 0 37V30.4H3V37H9.6V40ZM30.4 40V37H37V30.4H40V37C40 37.8 39.7 38.5 39.1 39.1C38.5 39.7 37.8 40 37 40H30.4ZM37 9.6V3H30.4V0H37C37.8 0 38.5 0.3 39.1 0.9C39.7 1.5 40 2.2 40 3V9.6H37ZM23.004 14.3C22.0013 14.3 21.1417 13.943 20.425 13.229C19.7083 12.515 19.35 11.6566 19.35 10.654C19.35 9.65133 19.707 8.79167 20.421 8.075C21.135 7.35833 21.9934 7 22.996 7C23.9987 7 24.8583 7.357 25.575 8.071C26.2917 8.78503 26.65 9.64337 26.65 10.646C26.65 11.6487 26.293 12.5083 25.579 13.225C24.865 13.9417 24.0066 14.3 23.004 14.3ZM21 32.25H13.85L16.15 20.5L11.15 22.85V29.55H8.15V20.8L16.35 17.35C17.4167 16.8833 18.175 16.5917 18.625 16.475C19.075 16.3583 19.5267 16.3 19.98 16.3C20.66 16.3 21.2583 16.4417 21.775 16.725C22.2917 17.0083 22.7333 17.4333 23.1 18L25.2 21.35C26.0667 22.75 27.25 23.9667 28.75 25C30.25 26.0333 32 26.55 34 26.55V29.55C31.7667 29.55 29.775 29.0333 28.025 28C26.275 26.9667 24.65 25.4167 23.15 23.35L21 32.25Z" fill="black"/>
</svg>
