<svg width="44" height="44" viewBox="0 0 44 44" fill="none" xmlns="http://www.w3.org/2000/svg">
<path d="M22.05 37.95C17.5833 37.95 13.8 36.4049 10.7 33.3146C7.6 30.2242 6.05 26.4527 6.05 22C6.05 17.5194 7.6 13.7242 10.7 10.6145C13.8 7.50485 17.5833 5.95 22.05 5.95C26.5167 5.95 30.3 7.50485 33.4 10.6145C36.5 13.7242 38.05 17.5194 38.05 22C38.05 26.4527 36.5 30.2242 33.4 33.3146C30.3 36.4049 26.5167 37.95 22.05 37.95ZM22.15 34.95C25.6833 34.95 28.7 33.6958 31.2 31.1875C33.7 28.6792 34.95 25.6333 34.95 22.05C34.95 21.3167 34.8833 20.6167 34.75 19.95C34.6167 19.2833 34.4167 18.5667 34.15 17.8C32.9833 17.9667 32.125 18.075 31.575 18.125C31.025 18.175 30.55 18.2 30.15 18.2C28.05 18.2 25.975 17.6333 23.925 16.5C21.875 15.3667 20.0167 13.7833 18.35 11.75C17.4833 14.05 16.2417 16.0417 14.625 17.725C13.0083 19.4083 11.1167 20.5833 8.95 21.25C8.95 25.2833 10.2403 28.575 12.8209 31.125C15.4015 33.675 18.5112 34.95 22.15 34.95ZM9.85 17.6C11.15 16.8333 12.2917 15.8583 13.275 14.675C14.2583 13.4917 14.9833 12.1833 15.45 10.75C14.1167 11.5167 12.9667 12.4917 12 13.675C11.0333 14.8583 10.3167 16.1667 9.85 17.6ZM17.55 25.5C16.9833 25.5 16.5083 25.3083 16.125 24.925C15.7417 24.5417 15.55 24.0667 15.55 23.5C15.55 22.9333 15.7417 22.4583 16.125 22.075C16.5083 21.6917 16.9833 21.5 17.55 21.5C18.1167 21.5 18.5917 21.6917 18.975 22.075C19.3583 22.4583 19.55 22.9333 19.55 23.5C19.55 24.0667 19.3583 24.5417 18.975 24.925C18.5917 25.3083 18.1167 25.5 17.55 25.5ZM30.7 15.2C31.1333 15.2 31.525 15.1833 31.875 15.15C32.225 15.1167 32.5833 15.0667 32.95 15C31.85 13.1667 30.3 11.7 28.3 10.6C26.3 9.5 24.2 8.95 22 8.95C21.7333 8.95 21.4833 8.95833 21.25 8.975C21.0167 8.99167 20.7167 9.03333 20.35 9.1C21.4833 11 22.975 12.4917 24.825 13.575C26.675 14.6583 28.6333 15.2 30.7 15.2ZM26.5 25.55C25.9333 25.55 25.45 25.3536 25.05 24.9607C24.65 24.5677 24.45 24.0808 24.45 23.5C24.45 22.9192 24.6465 22.4323 25.0394 22.0394C25.4323 21.6465 25.9192 21.45 26.5 21.45C27.0667 21.45 27.5417 21.6465 27.925 22.0394C28.3083 22.4323 28.5 22.9192 28.5 23.5C28.5 24.0808 28.3083 24.5677 27.925 24.9607C27.5417 25.3536 27.0667 25.55 26.5 25.55ZM0 9.6V3C0 2.2 0.3 1.5 0.9 0.9C1.5 0.3 2.2 0 3 0H9.6V3H3V9.6H0ZM9.6 44H3C2.2 44 1.5 43.7 0.9 43.1C0.3 42.5 0 41.8 0 41V34.4H3V41H9.6V44ZM34.4 44V41H41V34.4H44V41C44 41.8 43.7 42.5 43.1 43.1C42.5 43.7 41.8 44 41 44H34.4ZM41 9.6V3H34.4V0H41C41.8 0 42.5 0.3 43.1 0.9C43.7 1.5 44 2.2 44 3V9.6H41Z" fill="black"/>
</svg>
