<svg width="44" height="44" viewBox="0 0 44 44" fill="none" xmlns="http://www.w3.org/2000/svg">
<path d="M0 9.6V3C0 2.2 0.3 1.5 0.9 0.9C1.5 0.3 2.2 0 3 0H9.6V3H3V9.6H0ZM9.6 44H3C2.2 44 1.5 43.7 0.9 43.1C0.3 42.5 0 41.8 0 41V34.4H3V41H9.6V44ZM34.4 44V41H41V34.4H44V41C44 41.8 43.7 42.5 43.1 43.1C42.5 43.7 41.8 44 41 44H34.4ZM41 9.6V3H34.4V0H41C41.8 0 42.5 0.3 43.1 0.9C43.7 1.5 44 2.2 44 3V9.6H41Z" fill="black"/>
<path d="M10.5314 34C9.02623 34 7.74059 33.4625 6.67446 32.3875C5.60832 31.3125 5.05017 30.0125 5 28.4875C5 28.2625 5.01254 28.0375 5.03763 27.8125C5.06271 27.5875 5.10034 27.3625 5.15051 27.1375L8.31129 14.5375C8.66249 13.1875 9.37742 12.0938 10.4561 11.2563C11.5348 10.4187 12.764 10 14.1437 10H28.8187C30.1984 10 31.4276 10.4187 32.5063 11.2563C33.5849 12.0938 34.2999 13.1875 34.6511 14.5375L37.8119 27.1375C37.862 27.3625 37.9059 27.5938 37.9436 27.8313C37.9812 28.0688 38 28.3 38 28.525C38 30.05 37.4544 31.3438 36.3632 32.4063C35.2719 33.4688 33.9612 34 32.431 34C31.3774 34 30.3991 33.725 29.496 33.175C28.5929 32.625 27.9156 31.875 27.4641 30.925L26.4105 28.75C26.2851 28.5 26.0969 28.3125 25.8461 28.1875C25.5952 28.0625 25.3318 28 25.0559 28H17.9065C17.6306 28 17.3672 28.0625 17.1163 28.1875C16.8655 28.3125 16.6773 28.5 16.5519 28.75L15.4983 30.925C15.0468 31.875 14.3694 32.625 13.4664 33.175C12.5633 33.725 11.5849 34 10.5314 34ZM10.6316 31.75C11.2421 31.75 11.8065 31.5878 12.325 31.2635C12.8434 30.9392 13.2364 30.5014 13.504 29.95L14.5576 27.8125C14.8837 27.1625 15.3415 26.6563 15.931 26.2938C16.5205 25.9313 17.179 25.75 17.9065 25.75H25.0559C25.7834 25.75 26.4418 25.9375 27.0314 26.3125C27.6209 26.6875 28.0912 27.1875 28.4424 27.8125L29.496 29.95C29.7636 30.5014 30.1566 30.9392 30.675 31.2635C31.1935 31.5878 31.7569 31.75 32.3654 31.75C33.262 31.75 34.0365 31.4438 34.6887 30.8313C35.3409 30.2188 35.6796 29.4625 35.7047 28.5625C35.7047 28.4625 35.667 28.1625 35.5918 27.6625L32.431 15.1C32.2303 14.275 31.7989 13.5938 31.1366 13.0563C30.4743 12.5188 29.7017 12.25 28.8187 12.25H14.1437C13.2731 12.25 12.5036 12.5125 11.8351 13.0375C11.1666 13.5625 10.732 14.25 10.5314 15.1L7.37058 27.6625C7.3455 27.7625 7.30787 28.05 7.2577 28.525C7.2577 29.4371 7.58704 30.2027 8.24574 30.8216C8.90446 31.4405 9.69973 31.75 10.6316 31.75ZM23.7455 20.125C24.0672 20.125 24.3347 20.0166 24.5479 19.7997C24.7611 19.5828 24.8677 19.314 24.8677 18.9934C24.8677 18.6728 24.7589 18.4063 24.5413 18.1938C24.3237 17.9813 24.054 17.875 23.7323 17.875C23.4106 17.875 23.1431 17.9834 22.9299 18.2003C22.7166 18.4172 22.61 18.686 22.61 19.0066C22.61 19.3272 22.7188 19.5938 22.9365 19.8063C23.1541 20.0188 23.4238 20.125 23.7455 20.125ZM26.7557 17.125C27.0775 17.125 27.3449 17.0166 27.5582 16.7997C27.7714 16.5828 27.878 16.314 27.878 15.9934C27.878 15.6728 27.7692 15.4063 27.5516 15.1938C27.3339 14.9813 27.0643 14.875 26.7426 14.875C26.4208 14.875 26.1534 14.9834 25.9401 15.2003C25.7269 15.4172 25.6203 15.686 25.6203 16.0066C25.6203 16.3272 25.7291 16.5938 25.9467 16.8063C26.1644 17.0188 26.434 17.125 26.7557 17.125ZM26.7557 23.125C27.0775 23.125 27.3449 23.0166 27.5582 22.7997C27.7714 22.5828 27.878 22.314 27.878 21.9934C27.878 21.6728 27.7692 21.4063 27.5516 21.1938C27.3339 20.9813 27.0643 20.875 26.7426 20.875C26.4208 20.875 26.1534 20.9834 25.9401 21.2003C25.7269 21.4172 25.6203 21.686 25.6203 22.0066C25.6203 22.3272 25.7291 22.5938 25.9467 22.8063C26.1644 23.0188 26.434 23.125 26.7557 23.125ZM29.766 20.125C30.0877 20.125 30.3552 20.0166 30.5684 19.7997C30.7816 19.5828 30.8883 19.314 30.8883 18.9934C30.8883 18.6728 30.7794 18.4063 30.5618 18.1938C30.3442 17.9813 30.0745 17.875 29.7528 17.875C29.4311 17.875 29.1636 17.9834 28.9504 18.2003C28.7372 18.4172 28.6306 18.686 28.6306 19.0066C28.6306 19.3272 28.7394 19.5938 28.957 19.8063C29.1746 20.0188 29.4443 20.125 29.766 20.125ZM16.2176 22.5625C16.4906 22.5625 16.7149 22.474 16.8905 22.2969C17.0661 22.1198 17.1539 21.8958 17.1539 21.625V19.9375H18.8472C19.119 19.9375 19.3437 19.8485 19.5214 19.6706C19.6991 19.4927 19.7879 19.2677 19.7879 18.9957C19.7879 18.7236 19.6991 18.5 19.5214 18.325C19.3437 18.15 19.119 18.0625 18.8472 18.0625H17.1539V16.375C17.1539 16.1042 17.0647 15.8802 16.8862 15.7031C16.7076 15.526 16.4819 15.4375 16.2089 15.4375C15.9358 15.4375 15.7115 15.526 15.5359 15.7031C15.3603 15.8802 15.2725 16.1042 15.2725 16.375V18.0625H13.5792C13.3075 18.0625 13.0828 18.1515 12.9051 18.3294C12.7274 18.5073 12.6385 18.7323 12.6385 19.0044C12.6385 19.2765 12.7274 19.5 12.9051 19.675C13.0828 19.85 13.3075 19.9375 13.5792 19.9375H15.2725V21.625C15.2725 21.8958 15.3618 22.1198 15.5403 22.2969C15.7188 22.474 15.9446 22.5625 16.2176 22.5625Z" fill="black"/>
</svg>
