<svg width="300" height="300" viewBox="0 0 300 300" fill="none" xmlns="http://www.w3.org/2000/svg">
<rect x="26" y="15" width="249" height="262" fill="#354259"/>
<path d="M44.8214 292C37.1357 292 30.4107 290.064 24.6464 286.191C18.8821 282.318 16 277.8 16 272.636V27.3636C16 22.2 18.8821 17.6818 24.6464 13.8091C30.4107 9.93636 37.1357 8 44.8214 8H256.179C263.864 8 270.589 9.93636 276.354 13.8091C282.118 17.6818 285 22.2 285 27.3636V272.636C285 277.8 282.118 282.318 276.354 286.191C270.589 290.064 263.864 292 256.179 292H44.8214ZM36.3788 269.663C36.3788 274.082 39.9605 277.663 44.3788 277.663H255.602C260.021 277.663 263.602 274.082 263.602 269.663L263.602 29.6538C263.602 25.2356 260.021 21.6538 255.602 21.6538H44.3788C39.9605 21.6538 36.3788 25.2356 36.3788 29.6538L36.3788 269.663Z" fill="#354259"/>
<path d="M86.7917 55.9134L146.363 23L210.899 55.9134L220 119.272L146.363 232L81 119.272L86.7917 55.9134Z" fill="#F95738"/>
<path d="M150.5 207.125C155.047 198.675 159.846 190.929 164.898 183.887C169.95 176.846 174.953 170.183 179.909 163.9C189.388 151.55 196.875 140.933 202.369 132.05C207.863 123.167 210.61 111.459 210.61 96.9259C210.61 80.0983 204.77 65.8204 193.089 54.0923C181.409 42.3641 167.189 36.5 150.431 36.5C133.672 36.5 119.476 42.3641 107.841 54.0923C96.2073 65.8204 90.3902 80.0983 90.3902 96.9259C90.3902 111.459 93.1372 123.167 98.6311 132.05C104.125 140.933 111.612 151.55 121.091 163.9C126.047 170.183 131.05 176.846 136.102 183.887C141.154 190.929 145.953 198.675 150.5 207.125ZM150.5 242.55C147.915 242.55 145.652 241.816 143.713 240.349C141.774 238.882 140.374 236.908 139.512 234.425C134.341 218.608 127.876 205.5 120.116 195.1C112.355 184.7 104.817 174.733 97.5 165.2C90.1748 155.667 83.9268 145.754 78.7561 135.463C73.5854 125.171 71 112.329 71 96.9367C71 74.6289 78.6827 55.7292 94.0482 40.2375C109.414 24.7458 128.231 17 150.5 17C172.769 17 191.586 24.7262 206.952 40.1787C222.317 55.6313 230 74.5551 230 96.95C230 112.333 227.428 125.154 222.285 135.411C217.141 145.668 210.88 155.598 203.5 165.2C196.175 174.733 188.634 184.7 180.878 195.1C173.122 205.5 166.674 218.579 161.536 234.338C160.642 236.779 159.226 238.758 157.287 240.275C155.348 241.792 153.085 242.55 150.5 242.55ZM150.567 116.45C155.909 116.45 160.464 114.532 164.235 110.695C168.005 106.858 169.89 102.254 169.89 96.8824C169.89 91.5108 167.983 86.9292 164.168 83.1375C160.352 79.3458 155.774 77.45 150.433 77.45C145.091 77.45 140.536 79.3684 136.765 83.2051C132.995 87.0421 131.11 91.6462 131.11 97.0176C131.11 102.389 133.017 106.971 136.832 110.762C140.648 114.554 145.226 116.45 150.567 116.45Z" fill="#F8F8F8"/>
<path d="M150.561 277C127.724 277 109.087 273.642 94.6524 266.925C80.2175 260.208 73 251.65 73 241.25C73 235.4 75.6392 229.875 80.9177 224.675C84.6359 221.012 89.3431 217.833 95.0391 215.137C99.1408 213.197 103.844 215.605 105.182 219.941L106.202 223.245C107.5 227.452 105.087 231.834 101.261 234.011C100.495 234.446 99.7468 234.91 99.0152 235.4C96.1067 237.35 93.7907 239.3 92.0671 241.25C95.7297 245.583 103.324 249.375 114.851 252.625C126.377 255.875 138.28 257.5 150.561 257.5C162.841 257.5 174.799 255.875 186.433 252.625C198.067 249.375 205.715 245.583 209.378 241.25C207.654 239.517 205.392 237.675 202.591 235.725C201.696 235.101 200.756 234.511 199.772 233.954C196.082 231.865 193.823 227.669 195.01 223.599L196.028 220.105C197.312 215.701 202.059 213.224 206.202 215.194C211.845 217.877 216.512 221.038 220.204 224.675C225.483 229.875 228.122 235.4 228.122 241.25C228.122 251.65 220.904 260.208 206.47 266.925C192.035 273.642 173.398 277 150.561 277Z" fill="#2D2E43"/>
</svg>
