<svg width="300" height="300" viewBox="0 0 300 300" fill="none" xmlns="http://www.w3.org/2000/svg">
<path d="M92.7917 55.9134L152.363 23L216.899 55.9134L226 119.272L152.363 232L87 119.272L92.7917 55.9134Z" fill="#F95738"/>
<path d="M152.5 277C129.663 277 111.026 273.642 96.5915 266.925C82.1565 260.208 74.939 251.65 74.939 241.25C74.939 235.4 77.5783 229.875 82.8567 224.675C86.575 221.012 91.2821 217.833 96.9781 215.137C101.08 213.197 105.783 215.605 107.121 219.941L108.141 223.245C109.439 227.452 107.026 231.834 103.2 234.011C102.434 234.446 101.686 234.91 100.954 235.4C98.0457 237.35 95.7297 239.3 94.0061 241.25C97.6687 245.583 105.263 249.375 116.79 252.625C128.316 255.875 140.22 257.5 152.5 257.5C164.78 257.5 176.738 255.875 188.372 252.625C200.006 249.375 207.654 245.583 211.317 241.25C209.593 239.517 207.331 237.675 204.53 235.725C203.635 235.101 202.695 234.511 201.711 233.954C198.022 231.865 195.762 227.669 196.949 223.599L197.967 220.105C199.251 215.701 203.998 213.224 208.141 215.194C213.784 217.877 218.451 221.038 222.143 224.675C227.422 229.875 230.061 235.4 230.061 241.25C230.061 251.65 222.843 260.208 208.409 266.925C193.974 273.642 175.337 277 152.5 277ZM152.5 207.125C157.047 198.675 161.846 190.929 166.898 183.887C171.95 176.846 176.953 170.183 181.909 163.9C191.388 151.55 198.875 140.933 204.369 132.05C209.863 123.167 212.61 111.459 212.61 96.9259C212.61 80.0983 206.77 65.8204 195.089 54.0923C183.409 42.3641 169.189 36.5 152.431 36.5C135.672 36.5 121.476 42.3641 109.841 54.0923C98.2073 65.8204 92.3902 80.0983 92.3902 96.9259C92.3902 111.459 95.1372 123.167 100.631 132.05C106.125 140.933 113.612 151.55 123.091 163.9C128.047 170.183 133.05 176.846 138.102 183.887C143.154 190.929 147.953 198.675 152.5 207.125ZM152.5 242.55C149.915 242.55 147.652 241.816 145.713 240.349C143.774 238.882 142.374 236.908 141.512 234.425C136.341 218.608 129.876 205.5 122.116 195.1C114.355 184.7 106.817 174.733 99.5 165.2C92.1748 155.667 85.9268 145.754 80.7561 135.463C75.5854 125.171 73 112.329 73 96.9367C73 74.6289 80.6827 55.7292 96.0482 40.2375C111.414 24.7458 130.231 17 152.5 17C174.769 17 193.586 24.7262 208.952 40.1787C224.317 55.6313 232 74.5551 232 96.95C232 112.333 229.428 125.154 224.285 135.411C219.141 145.668 212.88 155.598 205.5 165.2C198.175 174.733 190.634 184.7 182.878 195.1C175.122 205.5 168.674 218.579 163.536 234.338C162.642 236.779 161.226 238.758 159.287 240.275C157.348 241.792 155.085 242.55 152.5 242.55ZM152.567 116.45C157.909 116.45 162.464 114.532 166.235 110.695C170.005 106.858 171.89 102.254 171.89 96.8824C171.89 91.5108 169.983 86.9292 166.168 83.1375C162.352 79.3458 157.774 77.45 152.433 77.45C147.091 77.45 142.536 79.3684 138.765 83.2051C134.995 87.0421 133.11 91.6462 133.11 97.0176C133.11 102.389 135.017 106.971 138.832 110.762C142.648 114.554 147.226 116.45 152.567 116.45Z" fill="#F8F8F8"/>
</svg>
