<svg width="44" height="44" viewBox="0 0 44 44" fill="none" xmlns="http://www.w3.org/2000/svg">
<path d="M0 9.6V3C0 2.2 0.3 1.5 0.9 0.9C1.5 0.3 2.2 0 3 0H9.6V3H3V9.6H0ZM9.6 44H3C2.2 44 1.5 43.7 0.9 43.1C0.3 42.5 0 41.8 0 41V34.4H3V41H9.6V44ZM34.4 44V41H41V34.4H44V41C44 41.8 43.7 42.5 43.1 43.1C42.5 43.7 41.8 44 41 44H34.4ZM41 9.6V3H34.4V0H41C41.8 0 42.5 0.3 43.1 0.9C43.7 1.5 44 2.2 44 3V9.6H41Z" fill="black"/>
<path d="M36 28L38.0126 30.0126C39.115 31.115 38.3342 33 36.7751 33H8.01973C6.49069 33 5.69699 31.1769 6.73878 30.0577L11.8583 24.5577C12.1893 24.202 12.6533 24 13.1392 24H16" stroke="black" stroke-width="2.75" stroke-linecap="round"/>
<path d="M27.4181 29.7237L19.9804 25.2684C19.67 25.0744 19.4289 24.8187 19.2574 24.5013C19.0858 24.1838 19 23.8409 19 23.4725V14.5965C19 14.2282 19.0858 13.8852 19.2574 13.5678C19.4289 13.2504 19.67 12.9946 19.9804 12.8006L27.452 8.27629C27.7675 8.0921 28.1168 8 28.5 8C28.8832 8 29.2325 8.0921 29.548 8.27629L37.0196 12.8006C37.33 12.9946 37.5711 13.2504 37.7427 13.5678C37.9142 13.8852 38 14.2282 38 14.5965V23.4725C38 23.8409 37.9113 24.1838 37.7338 24.5013C37.5563 24.8187 37.3069 25.0744 36.9858 25.2684L29.4466 29.7237C29.1237 29.9079 28.7838 30 28.4268 30C28.0699 30 27.7337 29.9079 27.4181 29.7237ZM27.4858 27.3407V19.6044L21.0623 15.8399V23.4035L27.4858 27.3407ZM29.5142 27.3407L35.9715 23.4035V15.8399L29.5142 19.6044V27.3407ZM28.5 17.7394L34.9235 13.9403L28.5 10.1758L22.0765 13.9403L28.5 17.7394Z" fill="black"/>
</svg>
